<svg xmlns="http://www.w3.org/2000/svg" viewBox="0 0 14.63 31.85">
  <defs/>
  <path fill="#12100b" d="M8.4 9.4a.09.09 0 00.08-.08.09.09 0 00-.08-.09.09.09 0 00-.09.09.09.09 0 00.09.08m.9 1.15h.25a.73.73 0 00.74-.5.36.36 0 000-.14.83.83 0 00-.66-.75h-.25a.73.73 0 00-.74.5.39.39 0 000 .15.81.81 0 00.66.74m-.58-.87h.07a.59.59 0 01.61-.4h.21a.69.69 0 01.57.61.52.52 0 010 .11.62.62 0 01-.61.4h-.21a.7.7 0 01-.57-.61.36.36 0 010-.11zm5.91 7.66c0-.29-.09-3.62-.09-3.62H.11S0 17.05 0 17.3v.05a17.41 17.41 0 007.33 14.5 17.42 17.42 0 007.3-14.49zM10 16.21a1 1 0 11-1 1 1 1 0 011-1m-.2 4a1 1 0 11-1-1 1 1 0 011 1m-1.45 3.27a1 1 0 11-1-1 1 1 0 011 1m-1-7.27a1 1 0 11-1 1 1 1 0 011-1m-.5 4a1 1 0 11-1-1 1 1 0 011 1m-2.24-4a1 1 0 11-1 1 1 1 0 011-1m-3.74 1a1 1 0 111 1 1 1 0 01-1-1m1 3a1 1 0 111 1 1 1 0 01-1-1M3 23.48a1 1 0 111 1 1 1 0 01-1-1m2.45 4.21a1 1 0 111-1 1 1 0 01-1 1m1.87 2.81a1 1 0 111-1 1 1 0 01-1 1m1.9-2.81a1 1 0 111-1 1 1 0 01-1 1m1.34-3.18a1 1 0 111-1 1 1 0 01-1 1m1.19-3.29a1 1 0 111-1 1 1 0 01-1 1m1-3a1 1 0 111-1 1 1 0 01-1 1m-2.05-8.19a.07.07 0 00.08-.08.08.08 0 00-.08-.08.09.09 0 00-.08.08.08.08 0 00.08.08m-.16.58a.09.09 0 00.08-.08.08.08 0 00-.08-.08.08.08 0 00-.09.08.09.09 0 00.09.08m-2.26-.39a.08.08 0 00.08-.09.08.08 0 00-.08-.08.09.09 0 00-.08.08.09.09 0 00.08.09m1.09.05h.18A.47.47 0 0010 10a.28.28 0 000-.09.54.54 0 00-.45-.48.56.56 0 00-.65.29.29.29 0 000 .09.57.57 0 00.45.49m-.31-.54a.35.35 0 01.36-.22.34.34 0 01.14 0 .42.42 0 01.35.35.13.13 0 010 .06.34.34 0 01-.35.22H9.4a.43.43 0 01-.35-.36v-.04L9 9.75zm-1-.28l-.75-.86-.75.86.76.86zm-1.29 0l.55-.62.55.62-.55.65zm-2.85.58A.08.08 0 004 10a.09.09 0 00-.09-.08.09.09 0 00-.08.08.08.08 0 00.08.08m.17.58a.09.09 0 00.08-.08.08.08 0 00-.08-.08.07.07 0 00-.08.08.08.08 0 00.08.08m1-.07h.25A.82.82 0 006 9.81a.39.39 0 000-.15.73.73 0 00-.74-.5L5 9.19a.82.82 0 00-.66.75.36.36 0 000 .14.73.73 0 00.74.5m-.02-1.25h.21a.59.59 0 01.61.4.36.36 0 010 .11.7.7 0 01-.57.61H5.1a.61.61 0 01-.61-.4.52.52 0 010-.11.69.69 0 01.57-.61m2.26-.26L7 9.48l.36.45.36-.44zm-.16.42l.16-.2.17.2-.16.2zm-4.8 2.2c-.2.19-.22.34-.17.48.11.29.47.23.73.1a18.24 18.24 0 008.81 0c.33.15.57.15.69-.11s0-.27-.14-.47l1-3.78h-.48a.42.42 0 00.31-.4.42.42 0 00-.36-.51.39.39 0 00.09-.26.42.42 0 00-.41-.42.41.41 0 00.08-.24.42.42 0 00-.42-.42.41.41 0 000-.19.42.42 0 00-.42-.42h-.07a.45.45 0 000-.16.42.42 0 00-.42-.42h-.08a.41.41 0 000-.11.42.42 0 00-.41-.36.47.47 0 00-.17 0v-.07a.42.42 0 00-.43-.42.48.48 0 00-.23.07.42.42 0 00-.42-.42.45.45 0 00-.3.12.43.43 0 00-.4-.28.36.36 0 00-.23.08 1.19 1.19 0 00-.93-1.39h-.09a.31.31 0 00.16-.11l.94.3V.7l-.88.3.34-1h-1.5L7 1 6.07.7v1.14l.93-.3a.26.26 0 00.15.11h-.08A1.19 1.19 0 006.15 3a.43.43 0 00-.22 0 .42.42 0 00-.41.33.41.41 0 00-.3-.12.42.42 0 00-.42.42.39.39 0 00-.23-.07.42.42 0 00-.43.44v.07A.33.33 0 004 4a.42.42 0 00-.42.42.49.49 0 000 .12h-.11a.42.42 0 00-.47.39.41.41 0 000 .16.42.42 0 00-.42.42.46.46 0 00.05.2.42.42 0 00-.42.42.41.41 0 00.08.24.41.41 0 00-.41.42.43.43 0 00.04.21.41.41 0 00-.39.41.42.42 0 00.32.41h-.51zM8.46.88v.79l-.74-.23a.78.78 0 000-.16.37.37 0 000-.15zM2 9.91l1.45.61-.45.79-.34.2.56-.88-1.11-.48zm.54.05a2.31 2.31 0 002.33-1.13 2.34 2.34 0 002.46-.37 2.27 2.27 0 002.45.36C10.12 9.61 10.87 10 12 10l-1.08.48.42.75a11.44 11.44 0 00-8.11 0l.46-.75s-.83-.37-1.15-.49m-.41.38l.8.35-.46.77zm.92 1.81a7.59 7.59 0 011.46-.58c0 .06 0 .11.07.11s.07 0 .07-.14h.21c0 .15 0 .19.08.19s.06 0 .06-.22l.25-.06c0 .23 0 .28.08.28s.06 0 .07-.29h.27c0 .26 0 .33.07.33s.06 0 .07-.36h.24c0 .33 0 .39.07.39s.07-.06.07-.4h.28c0 .34 0 .42.08.42s.07-.08.07-.43h.32c0 .38 0 .45.08.45s.08-.07.08-.45h.4c0 .38 0 .45.09.45s.08-.06.08-.45h.32c0 .38 0 .43.08.43s.07-.06.07-.42h.28c0 .35 0 .4.06.4s.07 0 .07-.38h.26c0 .29 0 .35.06.35s.07 0 .07-.33h.28c0 .22 0 .3.06.3s.08-.06.07-.27h.26c0 .19 0 .23.07.23s.06 0 .06-.19h.22c0 .1 0 .14.07.14s.07 0 .07-.1a8.42 8.42 0 011.46.57 18.54 18.54 0 01-8.51 0m9.2 0c-.12.23-.57-.07-.91-.23a10.59 10.59 0 00-8.07 0c-.24.11-.78.47-.9.23s.23-.49.79-.73a11.15 11.15 0 018.29 0c.49.21.93.46.8.74m-.1-.69l-.43-.76.74-.32zm.37-1.29l-1 .48.5.87-.33-.19-.44-.78 1.4-.63zM13 7.44a.32.32 0 11-.31-.31.31.31 0 01.31.31m-.6 1c-.15 0-.15-.11-.35-.58-.26-.72-1.47-3.76-4.29-3.86a2 2 0 00.33-.2c2.22.19 3.62 2.3 4.27 4.09.12.33.2.53.07.58m.08.69l-1-.11.23-.58zm-1.31-.93c-.23-.08-.35-.32-.6-.32 0-.16.15-.24.13-.41a.78.78 0 01.47.73M9.38 5.71c-.49-.32-1.38-.86-2.06-.34-.55-.53-1.61 0-2 .34a2.34 2.34 0 00-1.12-.17 4.14 4.14 0 016.33 0 1.88 1.88 0 00-1.11.17m.3 1.45c-.1.2 0 .24-.08.43-.2-.15-.42 0-.62 0a.81.81 0 01.7-.42m-2.09.07a.48.48 0 00-.27-.09.43.43 0 00-.26.09l-.28-.82h1.05zm0 .33a.32.32 0 11-.63 0 .32.32 0 11.63 0M7 7.78L6.24 8v-.9l.69.31a.32.32 0 000 .14.43.43 0 00.07.23m.76-.36l.7-.31V8l-.73-.24a.46.46 0 000-.21.32.32 0 000-.14m-2.06.07c-.19 0-.41-.13-.62 0 0-.2 0-.24-.07-.44a.79.79 0 01.69.42m-3.13.44c-.14.33-.2.63-.34.57s-.11-.12.06-.58c1-2.51 2.56-4 4.3-4.13A1.34 1.34 0 006.9 4c-2.77.17-4 3.14-4.36 3.94M4 7.82c-.24 0-.37.25-.6.32a.81.81 0 01.47-.73c0 .17.11.26.13.41M3.13 9l-1 .13.78-.7zM2.2 7.82h-.07l.09-.05v.05m.09-.64a.32.32 0 00.19-.07c0 .09-.07.18-.11.26a.46.46 0 00-.08-.19m.3-.66a.37.37 0 00.23-.07 2.6 2.6 0 00-.15.28.42.42 0 00-.08-.21M3 5.91a.38.38 0 00.19 0L3 6.14a.41.41 0 000-.19m.42-.58h.08a.32.32 0 00.14 0c-.06.08-.13.16-.19.25v-.13a.41.41 0 000-.16m.48-.53H4.16l-.3.2a.36.36 0 000-.1.5.5 0 000-.12m.53-.47a.48.48 0 00.18 0h.07a2.55 2.55 0 00-.28.21.35.35 0 000-.17.15.15 0 000-.07m.52-.14a.44.44 0 00.12-.2.36.36 0 00.22.06 3.3 3.3 0 00-.32.18m.61-.3a.47.47 0 00.11-.21.37.37 0 00.19.11l-.3.1m.69-.18a.38.38 0 00.14-.21l.13.18H6.2m2 0l.15-.2a.35.35 0 00.14.24H8.2m.67.13A.45.45 0 009 3.69a.4.4 0 00.12.21l-.31-.1m1.47.8a3.92 3.92 0 00-.28-.25h.1a.53.53 0 00.18 0 .17.17 0 000 .07.46.46 0 00.05.2m.49.45l-.26-.25h.26a.36.36 0 000 .11.51.51 0 000 .13m.46.54L11 5.31a.47.47 0 00.17 0h.08a.41.41 0 000 .16.28.28 0 000 .09m.4.58c-.07-.1-.13-.21-.21-.31a.55.55 0 00.22.06.45.45 0 000 .2v.06m.16.27a.42.42 0 00.25.09.36.36 0 00-.08.23c-.05-.11-.11-.21-.17-.32m.33.66a.47.47 0 00.22.09.42.42 0 00-.08.22c0-.1-.09-.21-.14-.31m.29.72v-.07a.35.35 0 00.12.07zm.29-1.05a.31.31 0 01-.32.31.32.32 0 110-.63.32.32 0 01.32.32m-.65-1a.32.32 0 11-.32.32.32.32 0 01.13-.26.34.34 0 01.17 0m-.41-.61a.33.33 0 01.35.3.38.38 0 01-.13.25.29.29 0 01-.16 0 .32.32 0 110-.63m-.47-.57a.32.32 0 11-.31.31.3.3 0 01.07-.15.3.3 0 01.21-.08m-.52-.53a.32.32 0 01.31.3.29.29 0 01-.09.22.34.34 0 01-.22.09.31.31 0 01-.31-.32.32.32 0 01.31-.32m-.59-.45a.32.32 0 110 .63.32.32 0 010-.63M9.42 4a.42.42 0 00.26 0 .4.4 0 00.1.26L9.42 4m0-.74a.32.32 0 01.32.32.34.34 0 01-.32.32.33.33 0 01-.32-.32.32.32 0 01.32-.32m-.71-.21a.32.32 0 01.32.32.32.32 0 01-.32.32.32.32 0 01-.32-.32.33.33 0 01.32-.32M7 1.44l-.76.23v-.8l.76.25a.47.47 0 000 .16.42.42 0 000 .16M7.09 1L6.76.13h1.1L7.58 1a.4.4 0 00-.49 0m.24.79a1.08 1.08 0 11-1.08 1.04 1.08 1.08 0 011.08-1.08m-1.4 1.32a.32.32 0 110 .63.32.32 0 110-.63m-.71.21a.32.32 0 11-.32.31.32.32 0 01.32-.31m-.65.35a.32.32 0 010 .63.32.32 0 110-.63M4 4.08a.32.32 0 010 .63.33.33 0 01-.22-.08.31.31 0 01-.09-.22.32.32 0 01.31-.33m-.52.52a.27.27 0 01.21.09.33.33 0 01.08.22.32.32 0 11-.63 0 .32.32 0 01.32-.32M3 5.17a.32.32 0 01.32.32.32.32 0 01-.32.32.3.3 0 01-.16 0 .38.38 0 01-.13-.26.34.34 0 01.29-.38m-.41.62a.33.33 0 01.17 0 .31.31 0 01.13.25.32.32 0 11-.63 0 .31.31 0 01.31-.31m-.33.66a.32.32 0 010 .63.32.32 0 110-.63m-.61 1a.32.32 0 11.63 0 .32.32 0 11-.63 0m.5.49s-.26.51 0 .61l-.19.76a2 2 0 002.71-.62c.1-.25-.09-.37-.28-.17-.17-.17.08-.38.2-.3 0-.58-.54-1-.25-1.47.49.29.19 1 .47 1.41.1-.15.4-.08.32.14-.25-.06-.37.1-.18.28a2.26 2.26 0 002.42-.44 2.29 2.29 0 002.38.46c.22-.24.1-.39-.17-.38 0-.2.24-.23.33-.1.29-.33 0-1.13.47-1.38.31.45-.33 1-.22 1.42.14-.07.37.12.22.27-.23-.16-.39-.06-.33.25.27.91 1.77 1.13 2.71.63l-.19-.76c.13-.12.09-.29 0-.61l.65.06-.52 1.76c-1.19.3-2.61 0-2.83-1a2 2 0 01-2.52-.39 2.05 2.05 0 01-2.52.39C4.51 9.64 3.2 10 2 9.72L1.5 8zm4.13 2.24a.09.09 0 00.08.09.09.09 0 00.09-.09.09.09 0 00-.09-.08.09.09 0 00-.08.08m0-.77a.09.09 0 00.08-.08.09.09 0 00-.08-.09.08.08 0 00-.08.09.08.08 0 00.08.08m-1.1.93h.18a.55.55 0 00.44-.49.28.28 0 000-.09h-.06.06a.47.47 0 00-.48-.31.55.55 0 00-.18 0 .54.54 0 00-.44.48.28.28 0 000 .09.47.47 0 00.48.32m0-.76a.34.34 0 01.14 0 .33.33 0 01.35.22.09.09 0 010 .05.43.43 0 01-.35.36h-.14a.34.34 0 01-.38-.15.13.13 0 010-.06.41.41 0 01.35-.35"/>
</svg>
